Coordinates
version=1
nRows=12
nColumns=24
inDegrees=yes

Units are S.I. units (second, meters, Newtons, ...)
Angles are in degrees.

endheader
time	pelvis_tilt	pelvis_list	pelvis_rotation	pelvis_tx	pelvis_ty	pelvis_tz	hip_flexion_r	hip_adduction_r	hip_rotation_r	knee_angle_r	ankle_angle_r	subtalar_angle_r	mtp_angle_r	hip_flexion_l	hip_adduction_l	hip_rotation_l	knee_angle_l	ankle_angle_l	subtalar_angle_l	mtp_angle_l	lumbar_extension	lumbar_bending	lumbar_rotation
      0.61200000	     -0.89683137	      6.62689728	     -3.39798647	     -0.81507238	      1.04856679	      0.28967064	     23.83321487	     -1.45794947	     -9.95845356	      3.49431372	      6.70530252	      2.17687797	      0.03044414	    -18.25527947	     12.08726666	     -8.15005883	     -1.34682823	      5.56898279	      2.55704183	     -0.04613524	      5.33514738	     -5.21233078	     -1.10778139
      0.61616667	     -0.89882468	      6.60371344	     -3.31458749	     -0.80902946	      1.04836522	      0.28975180	     23.71545997	     -1.41373498	     -9.87773524	      3.25455907	      6.77154253	      2.21336877	      0.03159302	    -18.40150576	     11.99813353	     -8.09254539	     -1.73307283	      5.50752608	      2.52576521	     -0.05647071	      5.38539702	     -5.13881532	     -1.12386840
      0.62033333	     -0.89531481	      6.55205076	     -3.21757447	     -0.80288516	      1.04819294	      0.28978757	     23.57285343	     -1.35200192	     -9.76913651	      2.99385370	      6.89969084	      2.22201068	      0.03364688	    -18.56937515	     11.87574442	     -8.00192275	     -2.10104328	      5.37389658	      2.52002221	     -0.06919749	      5.43627182	     -5.02268231	     -1.15101495
      0.62450000	     -0.88615978	      6.49418040	     -3.12576637	     -0.79667111	      1.04804800	      0.28983295	     23.41733997	     -1.28336558	     -9.63519954	      2.71273228	      7.00655602	      2.19903400	      0.03578124	    -18.72706673	     11.74509378	     -7.92089365	     -2.50330073	      5.21334350	      2.52255257	     -0.07959834	      5.47150087	     -4.90387447	     -1.18110867
      0.62866667	     -0.81592812	      6.34961168	     -3.04357267	     -0.79020874	      1.04802795	      0.28989376	     23.13593977	     -1.12831388	     -9.39991884	      2.47660669	      7.22488096	      2.00368862	      0.03963256	    -18.98564285	     11.52441615	     -7.78742634	     -2.83826646	      4.82675716	      2.55708958	     -0.10182506	      5.39180192	     -4.69225296	     -1.27492963
      0.63283333	     -0.80302197	      6.32756516	     -2.96401559	     -0.78406814	      1.04789631	      0.28993843	     22.99986410	     -1.10041823	     -9.25191844	      2.12825979	      7.18380670	      1.97000754	      0.04055524	    -19.10460689	     11.43420967	     -7.76140895	     -3.30334308	      4.74555608	      2.54198808	     -0.10429855	      5.42934308	     -4.63150318	     -1.29171350
      0.63700000	     -0.70800294	      6.16805533	     -2.85705187	     -0.77756520	      1.04797055	      0.29002242	     22.64323669	     -0.94172176	     -8.80276270	      1.96522440	      7.06101641	      1.56947013	      0.04411372	    -19.35763577	     11.17828324	     -7.70414207	     -3.69958930	      4.26825957	      2.60786110	     -0.10982564	      5.31830421	     -4.41127795	     -1.41139014
      0.64116667	     -0.68942345	      6.14774747	     -2.78431152	     -0.77142162	      1.04788047	      0.29007313	     22.49988344	     -0.91993523	     -8.65383291	      1.59359625	      6.98900058	      1.50424788	      0.04526235	    -19.45495412	     11.08761716	     -7.69365189	     -4.20856679	      4.19898546	      2.59599605	     -0.10791187	      5.37143730	     -4.34539328	     -1.42697426
      0.64533333	     -0.42313012	      5.97495168	     -2.77680947	     -0.76512143	      1.04817400	      0.29049840	     21.92580135	     -0.70628731	     -7.71516236	      1.53443366	      6.42419283	      0.01519818	      0.06910559	    -19.83357845	     10.82360340	     -7.88518503	     -4.67488053	      3.84990987	      2.82519357	     -0.01795754	      5.02938745	     -4.18008376	     -1.65005108
      0.64950000	     -0.44611662	      5.92064021	     -2.65049975	     -0.75881534	      1.04813461	      0.29053121	     21.77492535	     -0.66791987	     -7.54809654	      1.22389127	      6.32748248	      0.03067236	      0.07202114	    -19.86591466	     10.66651112	     -7.86212067	     -5.23115066	      3.72165054	      2.84003858	     -0.01193828	      5.10722299	     -4.08881449	     -1.65423981
      0.65366667	     -0.49819999	      5.74198533	     -2.51473404	     -0.75206472	      1.04813131	      0.29063908	     21.55453784	     -0.49328866	     -7.26580582	      1.08684358	      5.83760857	     -0.16004522	      0.07994258	    -19.90290055	     10.36100222	     -7.90545356	     -5.74712064	      3.17720952	      3.01074140	      0.02061688	      5.20998164	     -3.83009260	     -1.71086640
      0.65783333	     -0.47260630	      5.59852877	     -2.40343067	     -0.74553932	      1.04823552	      0.29081602	     21.28595093	     -0.35347338	     -6.99035133	      0.90283655	      5.31692487	     -0.51690379	      0.09241926	    -19.96748006	     10.09386848	     -8.08748166	     -6.33596170	      2.76525154	      3.12906755	      0.07545590	      5.23041017	     -3.65383778	     -1.77671426
